<?xml version="1.0" encoding="UTF-8"?>
<!-- Generator: Adobe Illustrator 15.1.0, SVG Export Plug-In . SVG Version: 6.00 Build 0)  -->
<!DOCTYPE svg PUBLIC "-//W3C//DTD SVG 1.1//EN" "http://www.w3.org/Graphics/SVG/1.1/DTD/svg11.dtd">
<svg version="1.1" id="Capa_1" xmlns="http://www.w3.org/2000/svg" xmlns:xlink="http://www.w3.org/1999/xlink" x="0px" y="0px" width="192px" height="62px" viewBox="0 0 192 62" enable-background="new 0 0 192 62" xml:space="preserve">
<g>
	<defs>
		<rect id="SVGID_1_" x="-17.093" y="-12.056" width="134.467" height="73.056"/>
	</defs>
	<clipPath id="SVGID_2_">
		<use xlink:href="#SVGID_1_" overflow="visible"/>
	</clipPath>
	<path clip-path="url(#SVGID_2_)" fill="#FF6200" d="M1.374,42.976c-0.133,0-0.208-0.073-0.208-0.196v-8.495   c0-0.122,0.074-0.196,0.208-0.196h1.866c1.198,0,2,0.246,2.506,0.729c0.458,0.443,0.68,1.087,0.68,1.9   c0,0.95-0.273,1.68-0.776,2.16c-0.485,0.458-1.201,0.69-2.174,0.69c-0.383,0-0.926-0.036-1.359-0.11v3.322   c0,0.123-0.073,0.196-0.209,0.196H1.374z M2.115,34.878v3.814c0.456,0.074,0.913,0.099,1.297,0.099   c0.692,0,1.221-0.172,1.567-0.556c0.296-0.333,0.469-0.827,0.469-1.469c0-0.643-0.16-1.11-0.469-1.407   c-0.346-0.346-0.888-0.481-1.641-0.481H2.115z"/>
	<path clip-path="url(#SVGID_2_)" fill="#FF6200" d="M7.093,39.89c0-2.085,1.148-3.556,2.949-3.556c1.752,0,2.604,1.433,2.604,3.333   c0,0.272-0.073,0.383-0.208,0.383H8.042c0.027,1.507,0.779,2.21,2.223,2.21c0.47,0,1.024-0.11,1.618-0.394   c0.111-0.051,0.173-0.037,0.234,0.073l0.162,0.382c0.048,0.124,0.024,0.186-0.1,0.261c-0.58,0.345-1.272,0.518-2.109,0.518   C8.042,43.1,7.093,41.84,7.093,39.89 M8.069,39.261h3.653c0-0.976-0.506-2.086-1.666-2.086C8.92,37.175,8.241,37.952,8.069,39.261"/>
	<path clip-path="url(#SVGID_2_)" fill="#FF6200" d="M13.81,39.877c0-2.369,1.256-3.543,3.036-3.543   c1.941,0,2.778,1.408,2.778,3.223c0,2.369-1.26,3.543-3.037,3.543C14.649,43.1,13.81,41.692,13.81,39.877 M18.672,39.657   c0-1.087-0.356-2.506-1.876-2.506c-0.999,0-2.037,0.678-2.037,2.627c0,1.088,0.359,2.506,1.876,2.506   C17.637,42.284,18.672,41.606,18.672,39.657"/>
	<path clip-path="url(#SVGID_2_)" fill="#FF6200" d="M23.983,36.334c0.679,0,1.26,0.248,1.654,0.644   c0.604,0.593,0.901,1.518,0.901,2.542c0,2.431-1.371,3.566-2.865,3.566c-0.567,0-1.172-0.21-1.553-0.469v3.161   c0,0.124-0.065,0.186-0.188,0.186h-0.529c-0.125,0-0.186-0.062-0.186-0.186v-6.703c0-0.95-0.012-1.804-0.037-2.444   c0-0.11,0.062-0.173,0.186-0.173h0.493c0.137,0,0.196,0.05,0.21,0.173c0.012,0.11,0.051,0.457,0.051,0.604   C22.539,36.706,23.205,36.334,23.983,36.334 M23.908,37.236c-0.555,0-1.047,0.186-1.369,0.493   c-0.346,0.334-0.418,0.741-0.418,2.148v1.9c0.356,0.272,0.911,0.482,1.491,0.482c1.198,0,1.976-1.062,1.976-2.641   C25.587,37.963,24.995,37.236,23.908,37.236"/>
	<path clip-path="url(#SVGID_2_)" fill="#FF6200" d="M28.959,41.568c0,0.544,0.047,0.716,0.482,0.716   c0.123,0,0.174,0.038,0.174,0.162v0.247c0,0.135-0.027,0.173-0.125,0.21c-0.087,0.035-0.284,0.073-0.456,0.073   c-0.407,0-0.692-0.173-0.829-0.431c-0.121-0.224-0.146-0.568-0.146-1.212v-4.727c0-2.197-0.075-2.691-0.075-2.913   c0-0.111,0.038-0.174,0.159-0.174H28.7c0.112,0,0.16,0.038,0.174,0.136c0.048,0.383,0.086,1.443,0.086,3.111V41.568z"/>
	<path clip-path="url(#SVGID_2_)" fill="#FF6200" d="M30.603,39.89c0-2.085,1.146-3.556,2.948-3.556   c1.752,0,2.604,1.433,2.604,3.333c0,0.272-0.072,0.383-0.208,0.383h-4.396c0.024,1.507,0.778,2.21,2.223,2.21   c0.471,0,1.026-0.11,1.619-0.394c0.11-0.051,0.172-0.037,0.234,0.073l0.16,0.382c0.05,0.124,0.024,0.186-0.101,0.261   c-0.577,0.345-1.269,0.518-2.11,0.518C31.551,43.1,30.603,41.84,30.603,39.89 M31.575,39.261h3.657   c0-0.976-0.509-2.086-1.668-2.086C32.43,37.175,31.749,37.952,31.575,39.261"/>
	<path clip-path="url(#SVGID_2_)" fill="#FF6200" d="M40.788,35.099c-0.123,0-0.186-0.062-0.186-0.172v-0.875   c0-0.112,0.063-0.173,0.186-0.173h0.838c0.138,0,0.198,0.061,0.198,0.173v0.875c0,0.11-0.061,0.172-0.198,0.172H40.788z    M40.948,42.976c-0.125,0-0.186-0.062-0.186-0.173v-6.172c0-0.11,0.061-0.173,0.186-0.173h0.532c0.124,0,0.185,0.063,0.185,0.173   v6.172c0,0.111-0.061,0.173-0.185,0.173H40.948z"/>
	<path clip-path="url(#SVGID_2_)" fill="#FF6200" d="M46.542,36.334c0.69,0,1.334,0.234,1.765,0.654   c0.456,0.458,0.63,1.112,0.63,2.136v3.679c0,0.111-0.062,0.173-0.185,0.173h-0.53c-0.124,0-0.186-0.062-0.186-0.173v-3.146   c0-1.05-0.027-1.594-0.372-1.989c-0.258-0.296-0.703-0.444-1.296-0.444c-0.542,0-1.159,0.198-1.482,0.532   c-0.197,0.222-0.283,0.494-0.319,0.948c-0.039,0.434-0.048,1.063-0.048,1.865v2.234c0,0.111-0.063,0.173-0.187,0.173h-0.53   c-0.124,0-0.186-0.062-0.186-0.173v-3.728c0-0.95-0.011-1.803-0.036-2.444c0-0.11,0.062-0.173,0.186-0.173h0.491   c0.138,0,0.199,0.05,0.213,0.173c0.009,0.11,0.036,0.42,0.036,0.567C44.936,36.706,45.739,36.334,46.542,36.334"/>
	<path clip-path="url(#SVGID_2_)" fill="#FF6200" d="M56.68,36.334c0.679,0,1.257,0.248,1.652,0.644   c0.606,0.593,0.903,1.518,0.903,2.542c0,2.431-1.371,3.566-2.865,3.566c-0.568,0-1.172-0.21-1.556-0.469v3.161   c0,0.124-0.063,0.186-0.186,0.186h-0.53c-0.124,0-0.185-0.062-0.185-0.186v-6.703c0-0.95-0.014-1.804-0.036-2.444   c0-0.11,0.059-0.173,0.183-0.173h0.495c0.135,0,0.195,0.05,0.208,0.173c0.014,0.11,0.05,0.457,0.05,0.604   C55.235,36.706,55.901,36.334,56.68,36.334 M56.605,37.236c-0.557,0-1.05,0.186-1.37,0.493c-0.346,0.334-0.42,0.741-0.42,2.148v1.9   c0.358,0.272,0.913,0.482,1.495,0.482c1.196,0,1.973-1.062,1.973-2.641C58.282,37.963,57.691,37.236,56.605,37.236"/>
	<path clip-path="url(#SVGID_2_)" fill="#FF6200" d="M63.731,36.397c0.195,0,0.283,0.036,0.283,0.21v0.432   c0,0.099-0.026,0.171-0.162,0.197c-0.641,0.111-1.061,0.321-1.384,0.655c-0.52,0.53-0.738,1.233-0.738,2.506v2.406   c0,0.111-0.063,0.173-0.186,0.173h-0.533c-0.124,0-0.186-0.062-0.186-0.173v-3.728c0-0.95-0.011-1.804-0.035-2.444   c0-0.11,0.062-0.173,0.186-0.173h0.479c0.137,0,0.199,0.049,0.211,0.173c0.024,0.271,0.036,0.802,0.036,1.209   C62.112,36.978,62.928,36.397,63.731,36.397"/>
	<path clip-path="url(#SVGID_2_)" fill="#FF6200" d="M64.431,39.877c0-2.369,1.26-3.543,3.039-3.543c1.938,0,2.78,1.408,2.78,3.223   c0,2.369-1.26,3.543-3.037,3.543C65.274,43.1,64.431,41.692,64.431,39.877 M69.296,39.657c0-1.087-0.358-2.506-1.875-2.506   c-0.999,0-2.037,0.678-2.037,2.627c0,1.088,0.358,2.506,1.876,2.506C68.26,42.284,69.296,41.606,69.296,39.657"/>
	<path clip-path="url(#SVGID_2_)" fill="#FF6200" d="M76.002,43.086v-0.999c-0.406,0.579-1.1,0.939-1.866,0.939   c-1.875,0-2.703-1.556-2.703-3.235c0-2.173,1.307-3.457,2.903-3.457c0.667,0,1.357,0.333,1.751,0.827   c0.011-0.248,0.036-0.444,0.062-0.568c0.023-0.109,0.084-0.135,0.184-0.135h0.322c0.16,0,0.197,0.049,0.209,0.186   c0.027,0.455,0.036,1.123,0.036,1.716v4.813c0,0.929-0.222,1.68-0.738,2.2c-0.458,0.457-1.139,0.716-2.149,0.716   c-0.544,0-1.21-0.1-1.506-0.186c-0.16-0.052-0.174-0.124-0.148-0.234l0.076-0.358c0.036-0.147,0.073-0.186,0.258-0.147   c0.444,0.086,0.851,0.134,1.346,0.134c0.701,0,1.185-0.196,1.481-0.53C75.867,44.371,76.002,43.816,76.002,43.086 M75.545,41.592   c0.284-0.355,0.458-0.899,0.458-1.641v-1.937c-0.296-0.496-1.012-0.854-1.642-0.854c-1.37,0-1.975,1.222-1.975,2.556   c0,1.444,0.618,2.48,1.863,2.48C74.73,42.198,75.238,41.988,75.545,41.592"/>
	<path clip-path="url(#SVGID_2_)" fill="#FF6200" d="M81.73,36.397c0.198,0,0.287,0.036,0.287,0.21v0.432   c0,0.099-0.027,0.171-0.162,0.197c-0.643,0.111-1.062,0.321-1.384,0.655c-0.52,0.53-0.742,1.233-0.742,2.506v2.406   c0,0.111-0.062,0.173-0.182,0.173h-0.533c-0.124,0-0.186-0.062-0.186-0.173v-3.728c0-0.95-0.014-1.804-0.037-2.444   c0-0.11,0.063-0.173,0.185-0.173h0.482c0.136,0,0.198,0.049,0.208,0.173c0.027,0.271,0.039,0.802,0.039,1.209   C80.115,36.978,80.93,36.397,81.73,36.397"/>
	<path clip-path="url(#SVGID_2_)" fill="#FF6200" d="M82.435,39.89c0-2.085,1.148-3.556,2.953-3.556   c1.751,0,2.604,1.433,2.604,3.333c0,0.272-0.075,0.383-0.21,0.383h-4.394c0.024,1.507,0.776,2.21,2.222,2.21   c0.469,0,1.024-0.11,1.617-0.394c0.11-0.051,0.174-0.037,0.236,0.073l0.16,0.382c0.048,0.124,0.023,0.186-0.101,0.261   c-0.578,0.345-1.27,0.518-2.112,0.518C83.388,43.1,82.435,41.84,82.435,39.89 M83.412,39.261h3.653   c0-0.976-0.506-2.086-1.667-2.086C84.263,37.175,83.583,37.952,83.412,39.261"/>
	<path clip-path="url(#SVGID_2_)" fill="#FF6200" d="M91.254,43.1c-0.732,0-1.496-0.224-1.99-0.555   c-0.135-0.086-0.135-0.186-0.073-0.296l0.159-0.297c0.062-0.112,0.134-0.175,0.271-0.1c0.63,0.334,1.085,0.458,1.653,0.458   c0.888,0,1.446-0.52,1.446-1.174c0-1.593-3.495-0.605-3.495-2.964c0-1.171,1.012-1.839,2.198-1.839   c0.728,0,1.443,0.248,1.988,0.692c0.11,0.086,0.11,0.183,0,0.334l-0.213,0.258c-0.083,0.1-0.159,0.11-0.271,0.024   c-0.456-0.334-0.962-0.518-1.542-0.518c-0.866,0-1.309,0.42-1.309,1c0,1.616,3.495,0.578,3.495,2.987   C93.574,42.236,92.684,43.1,91.254,43.1"/>
	<path clip-path="url(#SVGID_2_)" fill="#FF6200" d="M96.783,43.1c-0.729,0-1.494-0.224-1.986-0.555   c-0.137-0.086-0.137-0.186-0.076-0.296l0.162-0.297c0.061-0.112,0.136-0.175,0.271-0.1c0.631,0.334,1.086,0.458,1.657,0.458   c0.887,0,1.441-0.52,1.441-1.174c0-1.593-3.494-0.605-3.494-2.964c0-1.171,1.015-1.839,2.199-1.839   c0.727,0,1.445,0.248,1.986,0.692c0.111,0.086,0.111,0.183,0,0.334l-0.208,0.258c-0.088,0.1-0.16,0.11-0.271,0.024   c-0.458-0.334-0.967-0.518-1.544-0.518c-0.866,0-1.312,0.42-1.312,1c0,1.616,3.495,0.578,3.495,2.987   C99.104,42.236,98.215,43.1,96.783,43.1"/>
	<path clip-path="url(#SVGID_2_)" fill="#FFFFFF" d="M90.445,24.627c0.456,0,0.851-0.129,1.311-0.394h0.785   c1.621,0,2.879-0.46,4.067-1.643c1.576-1.507,2.496-4.006,2.496-6.405c0-2.86-1.181-5.752-3.288-7.823   C94.902,7.442,93.901,7,93.112,6.093c-0.396-0.392-0.697-0.786-0.961-1.312c-0.33-0.329-0.528-0.526-0.921-0.723L90.702,3.99   c-0.067-0.121-0.257-0.121-0.394-0.121c-1.049-0.178-2.013,0.386-3.03,0.583v0.132c0.654,0.197,0.775,0.987,1.139,1.38l0.315,0.449   c0.396,0.465,0.988,0.833,1.577,1.029c0.857,0.133,1.58-0.262,2.408-0.066c2.967,1.449,5.073,4.833,5.073,8.218   c0,4.83-2.761,6.737-4.479,6.737c-0.33,0-0.831-0.201-1.027-0.381c0.196-0.673,0.315-1.459,0.315-2.644   c0-2.794-1.103-5.818-2.617-7.361c-0.722-0.724-1.502-1.315-2.31-1.315c-0.393,0-0.793,0-1.053,0.328   c-0.331,0.263-0.529,0.79-0.461,1.118c-0.526,0.395-1.377,0.591-2.037,0.591c-0.724,0-1.641-0.263-2.451-0.919v-0.986l-0.124-0.524   c-0.067-0.429-0.067-0.953-0.396-1.351l-0.198-0.523c-0.325-0.789-0.195-1.118-0.788-2.27c-0.132-0.587-0.726-0.917-1.117-1.312   c-0.195-0.131-0.375-0.723-0.375-0.723c-0.389-0.894-0.653-1.872-1.505-2.399l-0.201,0.13l-0.46-0.328   c-0.198-0.197-0.327-0.264-0.716-0.264l-0.421-0.328c-0.384-0.067-0.712-0.067-1.174,0l-0.458,0.132   c-0.264,0.064-0.594,0.263-0.725,0.263c-0.526-0.263-1.185-0.524-1.447-0.524l-0.458,0.13c-0.396,0-0.661,0.132-0.988,0.328   c0,0-0.658,0.198-0.717,0.198c-0.179,0.066-0.358,0.264-0.477,0.394c-0.463,0.397-0.791,0.724-0.987,1.31l-0.264,0.528v0.957   c-0.195,0.197-0.458,0.395-0.589,0.788c-0.329,1.041-0.396,2.203-0.396,3.515c-0.064,0.267-0.195,0.331-0.328,0.398v1.016   c0,0,0.133,0.658,0.133,0.856c0,0.261,0.066,0.525,0.066,0.789c0,0.131,0,0.131,0.064,0.263c0-0.132,0.064,0.59,0.064,0.657   c0.264,1.346,0.659,2.529,1.185,3.817c-0.526,0.847-1.117,2.493-1.513,4.068c-0.327-0.327-0.789-0.392-1.184-0.392   c-0.37,0.065-0.76,0.197-1.027,0.591c-0.396-0.199-0.918-0.132-1.171,0.133c-0.546,0.468-0.546,0.729-0.546,1.112   c-0.132,0.136-0.397,0.463-0.397,0.92c0,0.593,0.064,0.988,0.397,1.512H90.445z"/>
	<path clip-path="url(#SVGID_2_)" fill="#000068" d="M55.715,18.453v4.663c-2.624,1.317-5.087,1.974-7.551,1.974   c-6.835,0-10.945-4.006-10.945-9.1c0-5.492,4.702-10.025,10.68-10.025c1.479,0,2.598,0.265,3.768,0.651   C52.51,6.878,53.03,7.18,53.555,7.18c0.46,0,0.589-0.767,0.656-1.215h0.65l0.595,6.308h-0.792c-0.322-1.248-0.917-2.271-1.702-2.99   c-1.23-1.249-2.925-1.906-4.862-1.906c-4.112,0-6.508,3.254-6.508,8.153c0,4.83,2.926,8.113,6.833,8.113   c1.151,0,2.204-0.262,3.492-0.854V17.99c0-1.542-0.249-2.135-2.473-2.135v-0.721h8.256v0.721   C55.65,15.855,55.715,16.515,55.715,18.453 M32.983,10.763v14.001h-1.085l-14-14.463c0.066,0.396,0.066,0.724,0.066,1.117v8.809   c0,2.692,0,3.678,2.462,3.678v0.723h-6.569v-0.723c2.49,0,2.49-1.185,2.49-3.678V10.185c0-1.492,0-3.13-2.624-3.13v-0.69h6.199   l11.515,11.822c-0.063-0.326-0.063-0.524-0.063-0.983v-6.441c0-2.598,0.063-3.708-2.408-3.708v-0.69h6.572v0.69   C33.111,7.055,32.983,8.102,32.983,10.763 M1.166,24.627v-0.723c1.578,0,2.695-0.132,2.695-2.417V9.48   c0-2.367-0.853-2.426-2.695-2.426v-0.69h9.256v0.69c-1.896,0-2.684,0.059-2.684,2.426v12.007c0,2.286,0.988,2.417,2.684,2.417   v0.723H1.166z"/>
	<path clip-path="url(#SVGID_2_)" fill="#FF6200" d="M73.866,24.627c-0.33-0.591-0.393-1.512-0.393-1.708   c0-0.329,0-0.79,0.195-1.106l-0.723,0.137c-0.197,0.245-0.263,0.379-0.263,0.507l0.33-0.128c0.063,0,0.131,0.128,0.195,0.261   c-0.064,0.329-0.459,0.329-0.589,0.459c-0.197,0.659,0.394,1.053,0.458,1.578H73.866z M99.104,16.186   c0-2.86-1.183-5.752-3.288-7.823C94.902,7.442,93.901,7,93.112,6.094c-0.396-0.393-0.697-0.787-0.961-1.313   c-0.33-0.329-0.528-0.525-0.923-0.722c0.068,0.197,0.134,0.394,0.2,0.591h-0.066c-0.328,0-0.66-0.198-0.917-0.395l0.257-0.265   C90.635,3.87,90.445,3.87,90.308,3.87c-1.051-0.178-2.013,0.386-3.03,0.583v0.132c0.651,0.196,0.775,0.985,1.139,1.381h0.38   c0.132,0,0.331,0.128,0.46,0.128c0-0.128-0.129-0.393-0.129-0.393c0.129-0.131,0.263-0.131,0.392,0   c0.327,0.198,0.789-0.131,1.116,0.393c-0.391,0-0.789,0-1.116,0.203c0,0.067,0.201,0.184,0.133,0.319   c-0.327-0.135-0.724,0-0.856-0.251l-0.067,0.049c0.398,0.466,0.991,0.833,1.579,1.029c0.854,0.133,1.58-0.262,2.408-0.065   c2.967,1.449,5.073,4.832,5.073,8.216c0,4.832-2.761,6.737-4.479,6.737c-0.33,0-0.833-0.2-1.027-0.379   c0.194-0.673,0.315-1.458,0.315-2.644c0-2.792-1.105-5.818-2.617-7.362c-0.724-0.722-1.502-1.314-2.313-1.314   c-0.39,0-0.79,0-1.05,0.328c-0.331,0.264-0.529,0.79-0.461,1.118c-0.526,0.395-1.377,0.591-2.037,0.591   c-0.724,0-1.641-0.262-2.451-0.919v-0.985c-0.191-0.066-0.847-0.462-0.52-0.761c0.201,0.067,0.329,0.184,0.396,0.236   c-0.067-0.428-0.067-0.955-0.396-1.35c-0.13,0-0.327,0-0.522-0.131c-0.196-0.196-0.401-0.458-0.401-0.788   c0.205,0.33,0.53,0.196,0.726,0.395c-0.325-0.789-0.195-1.117-0.788-2.269c-0.132-0.588-0.726-0.917-1.117-1.313   c-0.195-0.131-0.26-0.329-0.502-0.329c-0.261-0.065-0.261-0.394-0.261-0.583c0.067,0,0.261,0.121,0.389,0.189   c-0.389-0.893-0.653-1.872-1.507-2.399l-0.198,0.13h-1.05c0.129-0.13,0.392-0.197,0.59-0.328c-0.198-0.197-0.327-0.264-0.716-0.264   c-0.181,0.067-0.421,0.264-0.673,0.264h-0.062c0-0.197-0.07-0.46,0.313-0.591c-0.384-0.066-0.712-0.066-1.174,0   c-0.066,0.327-0.26,0.525-0.26,0.789c-0.198,0.13-0.267,0.328-0.462,0.527c0-0.397,0.195-0.791,0.264-1.185   c-0.264,0.064-0.594,0.263-0.725,0.263c-0.526-0.263-1.185-0.524-1.447-0.524c0.395,0.261,0.201,0.721,0.262,1.049l-0.262-0.13   c-0.062-0.264-0.396-0.462-0.458-0.789c-0.396,0-0.661,0.131-0.988,0.327v0.067c0.195,0,0.46,0.197,0.592,0.395   c-0.46,0-0.79-0.198-1.25-0.198c0,0,0-0.066-0.059-0.066c-0.179,0.066-0.358,0.264-0.477,0.394   c-0.463,0.397-0.791,0.724-0.987,1.31c0.132,0,0.331,0,0.395,0.067c-0.263,0.065-0.395,0.393-0.659,0.461v0.958   c-0.195,0.196-0.458,0.394-0.589,0.787c-0.329,1.041-0.396,2.203-0.396,3.516c-0.064,0.265-0.195,0.33-0.328,0.395v1.018   c0,0,0.396-0.367,0.592-0.491v0.821c-0.264,0-0.459,0.328-0.459,0.526c0,0.261,0.066,0.526,0.066,0.788   c0,0.132,0,0.132,0.064,0.264c0-0.132,0.132-0.264,0.329-0.328c0,0,0.132-0.132,0.395-0.132c-0.195,0.196-0.263,0.46-0.395,0.723   l-0.197,0.197c0,0-0.067,0.131-0.067,0.198c0.264,1.346,0.659,2.529,1.185,3.818c-0.526,0.845-1.117,2.492-1.513,4.068   c-0.327-0.328-0.789-0.393-1.184-0.393c-0.37,0.065-0.76,0.197-1.027,0.592c-0.396-0.199-0.916-0.133-1.171,0.132   c-0.546,0.468-0.546,0.729-0.546,1.112c-0.129,0.134-0.397,0.461-0.397,0.92c0,0.593,0.064,0.987,0.397,1.512h9.856   c-0.067-0.195-0.199-0.456-0.33-0.591c-0.194-0.393-0.065-0.921-0.065-1.316c0.195-0.391,0.395-0.77,0.658-1.104   c0.065-0.198,0-0.198,0.065-0.261l0.458-0.078c0.265,0,0.46-0.194,0.79-0.194c0.201,0.271,0.201-0.199,0.531-0.332   c0.72-0.132,1.393,0,1.782,0.525c0,0.078,0.064,0.078,0.064,0.141h-0.327c-0.369-0.141-0.8-0.335-1.26-0.141   c0,0.141-0.065,0.141-0.065,0.339v0.334c0.261,0,0.463,0.245,0.715,0.379c0.123-0.2,0.483-0.379,0.739-0.379   c0.33,0,0.789,0.179,0.789,0.707v0.723c0.267,0.264,0.595,0.329,0.922,0.458c-0.132,0.265-0.327,0.265-0.528,0.265h-0.523   c-0.067-0.066-0.199-0.066-0.199-0.265c-0.198,0.265-0.327,0.529-0.46,0.79h7.609c-0.126-0.261-0.26-0.456-0.324-0.591   c-0.132-0.393-0.132-0.921-0.132-1.316l0.721-0.972c0.393,0,0.723-0.132,1.446-0.197c0.135-0.197,0-0.274,0.594-0.274   c0.459,0,0.79,0.078,0.918,0.141c0.069,0.133,0.069,0.133,0,0.263c-0.128,0.132-0.392-0.129-0.591-0.065   c-0.13,0.132,0.07,0.197,0.07,0.334c0.129,0.113-0.592-0.137-0.592-0.137s-0.134,0.382-0.198,0.517c0,0,0.263,0.261,0.393,0.391   c0.129,0.199-0.195,0.396-0.195,0.594c-0.134-0.065-0.398-0.264-0.398-0.198c-0.132,0.528,0,0.987-0.062,1.512h0.72l0.065-1.116   c0.067-0.658,0.857-1.831,1.315-1.831c0.264,0,0.46,0.132,0.649,0.269c0.118,0.245,0.425,0.379,0.425,0.507   c0,0.133-0.183,0.199-0.487,0.199c-0.126,0-0.126-0.199-0.323-0.327l-0.39,0.391c0,0,0.455,0.396,0.455,0.66   c0,0.329-0.065,0.458-0.263,0.657l-0.393-0.788c-0.199,0-0.526,0.395-0.526,0.588c0,0.265-0.132,0.396-0.132,0.79h4.026   c0.456,0,0.851-0.129,1.309-0.394h0.787c1.621,0,2.879-0.46,4.067-1.643C98.184,21.083,99.104,18.585,99.104,16.186 M84.972,22.129   l-0.658,0.066c0.268,0.134,0.268,0.461,0.268,0.525c0,0.199-0.133,0.396-0.268,0.529c-0.128-0.133-0.128-0.33-0.261-0.529   c-0.132,0-0.196,0.33-0.196,0.46c0,0.592,0.264,1.053,0.458,1.447h0.594c-0.063-0.525-0.198-0.984-0.198-1.578   C84.709,22.72,84.907,22.33,84.972,22.129 M76.375,22.919c0-0.263-0.196-0.329-0.459-0.329c-0.126,0-0.425,0.197-0.425,0.329   c0,0.261-0.123,1.708-0.123,1.708h0.421C75.981,24.037,76.375,23.249,76.375,22.919 M74.985,22.854   c-0.067,0,0.07,0.133-0.588-0.524c-0.135,0-0.33,0.391-0.33,0.524c0,0.526,0.128,1.249,0.33,1.774h0.521   C74.917,24.037,74.985,23.38,74.985,22.854 M92.151,6.364c-0.131-0.27-0.397-0.398-0.592-0.398   c-0.197-0.264-0.46-0.594-0.724-0.594c0.199,0,0.461-0.195,0.789-0.195c0.131,0.33,0.397,0.525,0.46,0.789L92.151,6.364z    M90.177,4.979h-0.723c-0.129-0.198-0.327,0-0.46,0s-0.198,0-0.454-0.198c0.388,0,0.587-0.196,0.914-0.329   C89.72,4.65,89.981,4.716,90.177,4.979 M88.601,12.471c-0.43-0.13-0.672-0.327-1.063-0.327c-0.133,0-0.726,0.197-0.788,0.327   c-0.199-0.262,0.128-0.788,0.392-0.92c0.262-0.133,0.396-0.067,0.526,0c0,0.394,0.444,0.197,0.687,0.33   C88.479,12.076,88.541,12.208,88.601,12.471 M88.541,13.424c-0.369,0-0.428-0.053-0.676-0.053c-0.327,0-0.723,0.117-0.918,0.446   c-0.135-0.262-0.069-0.393,0-0.556c0.195-0.196,0.523-0.462,0.786-0.462C88.171,12.798,88.541,13.129,88.541,13.424 M90.048,14.871   c-0.529-0.327-1.319-0.528-1.753-0.528c-0.242,0-1.018,0.33-1.283,0.592l-0.135-0.592c0.4-0.067,0.4-0.396,0.66-0.396   c0.195,0,0.454-0.066,0.634-0.066c0.183,0,0.307-0.124,0.369-0.124c0.32,0,0.188,0.325,0.388,0.325s0.329-0.135,0.462-0.135   C89.72,13.947,89.981,14.477,90.048,14.871 M90.245,16.315c-0.463,0-0.919-0.129-0.988-0.326c-0.129-0.133,0-0.397-0.329-0.397   c-0.132,0-0.327,0.198-0.327,0.198c-0.123,0.066-0.489-0.198-0.489,0c0,0.328-0.248,0.46-0.575,0.46c-0.133,0-0.26,0-0.396-0.064   v-0.657c0.849,0,0.787-0.265,1.153-0.265c0.245,0,0.434,0.131,0.633,0.131c0.329,0,0.135-0.131,0.462-0.131   c0.33,0,0.456,0.265,0.658,0.328C90.048,15.791,90.245,16.054,90.245,16.315 M89.652,17.728c-0.198-0.065-0.658-0.129-0.658-0.327   c0-0.263-0.133-0.329-0.454-0.329c-0.245,0-0.428,0.066-0.808,0.197c0,0-0.195-0.264-0.263-0.52   c0.135-0.064,0.642-0.191,0.884-0.191c0.442,0,0.902,0,0.902,0.191C89.257,17.004,89.652,17.072,89.652,17.728 M78.283,7.508   c0,0.066-0.132,0.657-0.132,0.657l-0.526,0.133l0.327-1.419C78.086,7.113,78.283,7.376,78.283,7.508 M90.901,20.031   c0,0.393,0,0.525-0.199,0.854l-0.394-0.592c0.137-0.195,0.137-0.458,0.327-0.787C90.702,19.505,90.901,19.962,90.901,20.031    M89.325,19.176c-0.464,0-0.198-0.919-1.154-0.919c-0.18,0-0.307,0.329-0.566,0.393c0-0.064,0.063-0.461,0.063-0.461   c0-0.131,0.065-0.395,0.323-0.525c0.487,0,0.363,0.198,0.738,0.327c0.199,0.067,0.334,0.198,0.596,0.198V19.176z M85.234,15.462   c-0.591-0.328-0.921-0.918-1.446-1.515c0.525,0,0.66,0.53,1.056,0.597c0.127,0.129,0.262,0.194,0.39,0.391V15.462z M79.64,10.63   c-0.395,0-0.594-0.196-0.789-0.562c0-0.197-0.064-0.456,0-0.786c0.129,0.263,0.129,0.395,0.263,0.526   c0.26-0.131,0.26,0.192,0.324,0.259C79.508,10.238,79.64,10.434,79.64,10.63 M90.445,21.749c-0.137,0.202-0.137,0.202-0.201,0.381   c0-0.316-0.398-0.513-0.658-1.046l0.26-0.463c0.202,0.132,0.462,0.331,0.462,0.657c0,0-0.063,0.141,0,0.274   C90.308,21.616,90.445,21.616,90.445,21.749 M89.127,19.899c0,0.261-0.064,0.328-0.133,0.657c-0.454-0.063-0.454-0.594-0.516-0.657   c-0.307-0.394-0.746-0.065-1.074-0.065c-0.126-0.396,0.066-0.396,0.066-0.658c0.198,0,0.395-0.133,0.583,0   c0.301-0.133,0.487,0.198,0.808,0.198C88.928,19.505,89.063,19.834,89.127,19.899 M85.83,17.204c0,0.264-0.132,0.459-0.065,0.723   c-0.134-0.397-0.398-0.789-0.53-1.178c0-0.064-0.066-0.064,0.07-0.13c0.062,0,0.326,0,0.326,0.066   C85.697,16.808,85.83,17.004,85.83,17.204 M80.098,12.076c-0.066,0.264-0.329,0-0.391,0h-0.593   c-0.067-0.132-0.133-0.196-0.133-0.328c0.265-0.065,0.458-0.197,0.66-0.065C79.769,11.88,79.901,12.076,80.098,12.076    M81.544,13.555c-0.195,0.201-0.723,0.262-1.114-0.067l0.521-0.227C81.149,13.424,81.414,13.488,81.544,13.555 M84.907,17.269   c0,0.394-0.063,0.856-0.063,1.316c-0.201,0-0.201-0.132-0.201-0.397c-0.062-0.395-0.195-0.72-0.33-1.116   c-0.128-0.514-0.458-0.953-0.717-1.542c-0.067-0.265-0.397-0.395-0.661-0.594c0.329,0,0.661,0,0.921,0.264   c0,0.131,0.064,0.196,0.264,0.393c0.462,0,0.329,0.594,0.725,0.855c-0.201,0.171-0.263,0.301-0.396,0.425   C84.644,17.004,84.844,17.072,84.907,17.269 M82.343,15.331c0,0.199-0.128,0.262-0.251,0.394c0,0-0.238-0.329-0.238-0.46   c0-0.265,0-0.393,0.059-0.591C82.091,14.871,82.343,15.134,82.343,15.331 M88.479,21.277c0,0.024-0.124,0.141-0.124,0.141   c-0.301-0.141-0.49-0.206-0.884-0.206c0-0.261-0.192-0.592-0.328-0.592c-0.392,0-0.33,0.264-0.656,0.264l0.591-0.592   c0.065-0.132,0.065-0.132,0.201-0.132c0.192,0.132,0.26,0.199,0.455,0.199c0,0.133,0,0.197-0.065,0.393   c0.197,0.132,0.323-0.067,0.444,0.132C88.295,20.951,88.479,21.016,88.479,21.277 M83.199,16.749c0,0.124-0.199,0.256-0.264,0.256   c0,0-0.33-0.32-0.392-0.622c-0.064-0.264,0.194-0.725,0.194-0.725c0.066,0,0.133,0.132,0.198,0.132c0.065,0.066,0,0.264,0.065,0.46   C83.199,16.383,83.331,16.618,83.199,16.749 M78.151,10.434c-0.789-0.433-1.645-0.756-2.603-0.821c0,0.197,0,0.389-0.057,0.456   c0.752,0.365,1.475,0.694,2.133,1.284v0.591c-0.658-0.655-1.381-1.314-2.195-1.51c-0.061,0.131-0.313,0.263-0.374,0.524   c-0.463-0.328-0.988-0.658-1.519-0.721c-0.195,0-0.329-0.691-0.329-0.691c0.329-0.132,0.529-0.329,0.658-0.658h0.263   c0.198,0,0.198-0.131,0.198-0.327c0-0.396-0.854-0.396-1.25-0.396c-0.458,0-0.786,0-1.054,0.198c-0.126,0-0.062,0.198-0.062,0.33   c0,0.064,0.195,0.195,0.195,0.195c0.135,0,0.267-0.131,0.398-0.131c-0.067,0.396,0.065,0.593,0.459,0.79l-0.067,0.639   c-0.791,0-1.313,0.313-1.904,0.578c-0.199-0.132-0.33-0.329-0.461-0.525c-0.792,0.26-2.118,1.313-2.118,1.313v-0.46   c0.582-0.525,1.326-0.79,1.919-1.089V9.546c-0.262-0.132-0.526,0-0.786,0c-0.552,0.066-1.133,0.325-1.525,0.639   c0-0.184-0.067-0.441-0.067-0.441c0.724-0.395,1.592-0.724,2.443-0.591V8.888c-0.065-0.131-0.065-0.327-0.195-0.327   c-0.396-0.396-0.79-0.986-0.79-1.381l0.265-0.125c-0.131-0.372-0.265-1.353,0-1.683c-0.384-0.195-0.742-0.526-0.867-0.787   c-0.132-0.329-0.262-0.526-0.33-0.894c0.198-0.393,0.33-0.525,0.514-0.916c0.121,0,0.299-0.064,0.358-0.196   c0.324-0.066,0.52-0.393,0.913-0.196c0.265,0,0.527,0.13,0.727,0.196c0,0.132,0,0.196,0.128,0.329c0.396,0,0.396,0.39,0.597,0.719   c0.194,0.064,0.389,0.064,0.523,0.064c0.393,0.122,0.723,0.122,0.854,0.299c0.525-0.299,1.051-0.363,1.642-0.299   c0.067-0.198,0.199-0.46,0.27-0.783c0.062,0.191,0.062,0,0.192,0c0.244-0.197,0.542-0.524,0.996-0.395   c0.263,0.198,0.723,0.066,0.985,0.395c0.201,0.258,0.33,0.651,0.528,0.961c-0.198,0.386,0,0.912-0.395,1.109l-0.396,0.393   c-0.132,0-0.132,0.134-0.328,0.134c0.196,0.459,0.067,1.109-0.132,1.548C76.638,7,76.834,7,76.834,6.813   c0.067,0.066,0,0.187,0,0.242v0.192c0,0.328-0.196,0.657-0.459,0.918c-0.132,0.396-0.459,0.923-0.884,0.988v0.13   c0.949,0,1.738,0.263,2.66,0.718V10.434z M80.822,14.544l-0.331,0.129c-0.722,0-1.053-0.196-1.377-0.461   c0.26,0,0.593-0.332,0.593-0.332C80.032,14.212,80.491,14.477,80.822,14.544 M78.98,13.064c-0.371,0-0.83,0.196-1.029-0.199   c0.135-0.067,0.267-0.263,0.398-0.395L78.98,13.064z M84.313,19.176c0,0.33-0.393,0.723-0.525,0.984   c0.132-0.326,0.132-0.984,0-0.984c-0.133-0.066-0.393,0-0.393-0.133c0-0.198,0.066-0.458,0.066-0.589   c0-0.265-0.198-0.396-0.198-0.526c0-0.397,0.462-0.459,0.592-0.723c0.064,0.264,0.064,0.524,0.064,0.854   c0,0.131,0.199,0.528,0,0.855C83.92,19.11,84.313,18.978,84.313,19.176 M82.803,18.453c0,0.392-0.26,0.723-0.324,1.117   c0-0.395-0.069-0.726-0.326-0.985c0-0.132,0.189-0.132,0.062-0.329c0,0-0.362-0.199-0.362-0.463c0-0.264,0.238-0.46,0.362-0.656   c0-0.066,0.264,0.131,0.264,0.525c0,0.065,0,0.264-0.069,0.395C82.343,18.256,82.803,18.256,82.803,18.453 M77.43,13.817   c-0.329,0.063-0.595-0.262-0.923-0.393c-0.131-0.359-0.131-0.756-0.263-0.953c0.263,0.197,0.857,0.197,0.723,0.79   C76.966,13.424,77.229,13.555,77.43,13.817 M79.246,15.658c-0.265,0-0.702,0-0.962-0.196c-0.397-0.198-0.526-0.328-0.725-0.527   c0.263-0.197,0.592-0.197,0.725-0.262C78.544,14.935,78.787,15.395,79.246,15.658 M68.271,5.57l-0.458,0.131l0.062-0.33   c0.129-0.195,0.197-0.393,0.396-0.591V5.57z M76.638,14.673c-0.263,0.065-0.722,0.198-0.848-0.129c-0.361-0.597-0.181-1.12,0-1.545   c0.126,0.372,0.191,0.758,0.256,1.083C76.113,14.343,76.506,14.477,76.638,14.673 M74.786,11.091   c-0.067,0.393-0.194,0.985-0.591,1.25c0-0.264-0.128-0.396-0.26-0.592c-0.069,0,0,0.196-0.069,0.196   c0,0.132-0.129,0.396-0.129,0.658c-0.133,0.065-0.396,0.196-0.661,0.065v-0.197c-0.063-0.13-0.063-0.395-0.063-0.526l-0.067-0.064   c-0.197,0.064-0.197,0.196-0.197,0.328c-0.066,0.132-0.195,0.262-0.195,0.459c-0.264,0-0.398-0.065-0.593-0.197v-0.59   c0-0.132,0-0.132-0.065-0.132l-0.33,0.328c-0.264-0.196-0.329-0.723-0.329-1.051c1.053-0.591,2.367-0.395,3.16-0.066   C74.524,11.025,74.657,11.025,74.786,11.091 M78.151,16.383h-0.199c-0.723,0.235-1.313-0.197-1.906-0.592   c0.33-0.132,0.789-0.198,1.183-0.198l0.201,0.397C77.625,16.054,77.952,16.25,78.151,16.383 M68.401,6.48l-0.33,0.398   c0.064,0.629-0.197,1.09-0.197,1.682l-0.33-1.053c0.067-0.262,0.13-0.508,0.33-0.826L68.401,6.48z M75.117,14.935   c-0.331-0.197-0.922-0.262-0.79-0.659c0.132-0.329,0.33-0.396,0.459-0.52C74.853,14.212,74.917,14.544,75.117,14.935    M81.149,21.616h-0.063c-0.134-0.198-0.199-0.339-0.33-0.339c0.195-0.722-0.198-1.315-0.326-1.904v-0.198   c0.196,0.33,0.719,0.658,0.655,0.984C81.149,20.752,81.149,21.277,81.149,21.616 M79.64,19.176c-0.33,0-0.594,0-0.789-0.331   c-0.064,0-0.179-0.195-0.241-0.063c-0.327,0.261-0.658-0.196-1.051-0.132c-0.196,0.195-0.394,0.329-0.724,0.393v-0.064   c0-0.197,0.132-0.393,0.395-0.525c0.396,0.132,0.723-0.726,1.121-0.265c0.194,0.068,0.378,0.068,0.501,0.068   C79.31,18.453,79.438,18.845,79.64,19.176 M73.668,13.88c0,0.462-0.064,1.055-0.525,1.254l-0.131-0.657   C73.208,14.343,73.405,14.212,73.668,13.88 M75.849,16.749c-0.123,0.124-0.48,0.256-0.732,0.256   c-0.398-0.32-0.658-0.689-1.05-1.214l1.05,0.199C75.307,16.119,75.671,16.558,75.849,16.749 M79.769,20.492   c-0.261-0.2-0.655-0.2-0.789-0.53c-0.252-0.063-0.437-0.063-0.762-0.063c-0.267,0.063-0.594,0.063-0.856,0.063   c-0.069,0,0-0.063-0.133-0.128c-0.395,0.128-0.789,0.128-1.183,0.525l0.33-0.789c0.263,0,0.459-0.132,0.591-0.132   c0.263-0.065,0.463-0.065,0.658-0.065v0.065c0.726,0,1.554-0.065,2.083,0.523L79.769,20.492z M72.29,14.935   c-0.395-0.391-0.724-0.723-0.724-1.118c0.201,0,0.395,0,0.589,0.13C72.155,14.276,72.29,14.544,72.29,14.935 M71.042,13.064   l-0.199,0.816c-0.198-0.393-0.396-0.751-0.46-1.213L71.042,13.064z M80.43,21.813c-0.069,0.137-0.205,0.517-0.267,0.778   c-0.132-0.396-0.263-0.975-0.726-0.975c-0.064-0.261-0.128-0.339-0.392-0.533l-0.502-0.067c0.066,0.261,0.437,0.261,0.185,0.6   c0.252,0.197,0.45,0.197,0.582,0.513c0.128,0.2,0,0.461,0.063,0.591l-0.393,0.199c0-0.329,0.066-0.969-0.371-1.106   c-0.392,0.137-0.459-0.395-0.724-0.536c-0.129,0-0.129-0.326-0.327-0.194c-0.33,0.194-0.724,0-1.052,0.194l0.328-0.525   c0.267-0.196,0.528-0.132,0.79-0.196l0.526-0.063c0.521,0,0.963,0.26,1.489,0.459c0.261,0.132,0.392,0.326,0.392,0.601   C80.164,21.616,80.43,21.616,80.43,21.813 M75.248,18.781h-0.131c-0.062,0-0.525-0.196-0.658-0.328   c-0.062-0.197-0.062-0.396-0.062-0.396h0.521L75.248,18.781z M70.188,14.082c-0.398-0.135-0.844-0.526-1.022-0.821   c-0.121-0.262-0.18-0.593-0.18-0.79c0.238,0,0.417,0.197,0.477,0.328v0.067C69.789,13.261,70.12,13.555,70.188,14.082    M73.341,16.383c-0.064,0.366-0.265,0.49-0.592,0.95c-0.195,0.135-0.594,0.196-0.982,0.395c0.062-0.198,0.255-0.26,0.389-0.459   c0.135-0.197,0.398-0.52,0.463-0.711C72.946,16.383,73.076,16.383,73.341,16.383 M78.151,22.72l-0.199,0.199   c-0.195-0.199-0.066-0.724-0.393-0.79c-0.33,0-0.592-0.316-0.724-0.381l0.267-0.132c0,0,0.128-0.064,0.261,0   c0.129,0.132,0.262,0.197,0.262,0.334c0.132,0.179,0.327,0,0.462,0.179C78.151,22.33,78.218,22.591,78.151,22.72 M72.155,15.856   c-0.195,0.394-0.389,0.762-0.786,0.892c-0.199,0-0.526,0.124-0.922,0c0.198-0.13,0.396-0.191,0.661-0.366l0.525-0.526H72.155z    M73.473,18.845c-0.265,0.198-0.46,0.198-0.79,0.133l-0.393-0.525h0.987L73.473,18.845z M68.728,13.88   c-0.327,0.332-0.657,0.462-0.789,0.858c0-0.194-0.065-0.396-0.126-0.526c0.062-0.265,0.258-0.395,0.323-0.456   C68.334,13.817,68.463,13.817,68.728,13.88 M69.462,14.871c0,0.263-0.119,0.591-0.417,0.919c-0.059,0.066-0.249,0.199-0.249,0.199   c0-0.397,0.19-0.726,0.19-1.055C69.166,14.871,69.343,14.738,69.462,14.871 M70.382,15.658l-0.262,0.96   c-0.331,0.254-0.777,0.13-1.135,0.13c0.477-0.13,0.871-0.694,1.135-1.09C70.188,15.592,70.252,15.658,70.382,15.658 M70.712,18.978   c0,0.198-0.067,0.984-0.067,0.984c-0.13-0.457-0.458-0.919-0.856-0.919c-0.193-0.198-0.386-0.393-0.446-0.589   c-0.178-0.197-0.358,0-0.615-0.197c-0.265,0-0.592,0-0.854,0.197v-0.197l0.459-0.529c0.461,0.066,1.009,0,1.128,0.33   c0.327,0.199,0.658,0.396,0.726,0.528v0.196C70.315,18.845,70.581,18.912,70.712,18.978 M70.382,21.016l-0.46,0.402   c-0.133-0.141,0-0.467-0.195-0.667c0-0.132,0.129-0.196,0.062-0.26c-0.062-0.133-0.804-0.396-0.804-0.396   c-0.257-0.198-0.584-0.398-0.85-0.658c-0.261-0.065-0.46,0.067-0.787,0.132v-0.132c0.132-0.263,0.132-0.594,0.526-0.594   c0.197,0,0.459,0,0.588,0.198c0.265,0,0.397,0.264,0.582,0.331c0.299,0.325,0.552,0.46,0.745,0.588c0,0.198,0.067,0.33,0.196,0.397   C70.382,20.359,70.252,20.752,70.382,21.016 M69.403,21.95l-0.179,0.641l-0.428-1.172c-0.525-0.467-1.12-0.534-1.447-0.798   c-0.263-0.064-0.263,0.132-0.395,0c0-0.128,0-0.328,0.199-0.523h0.392l0.395,0.195c0.196,0.2,0.658,0.2,0.658,0.592   c0,0.067-0.067,0.132,0.13,0.393l0.615,0.141L69.403,21.95z M67.612,22.591c0,0.525-0.855,1.247-0.855,1.247   c0-0.326,0.197-0.722,0.197-1.117c0,0-0.264-0.263-0.529-0.263c-0.195,0.133-0.195,0.263-0.258,0.462   c-0.199,0.395-0.594,0.789-0.658,1.183c-0.064,0-0.064-0.066-0.064-0.066c0-0.657,0.064-1.774,0.456-2.224   c0.33-0.395,0.595-0.395,0.987-0.458l0.331,0.063l-0.264,0.395C67.218,21.95,67.612,22.195,67.612,22.591 M65.306,22.195   c0,0.262-0.064,0.525-0.189,0.724c-0.07-0.263-0.257-0.59-0.571-0.59c-0.26,0.524-0.327,0.72-0.067,1.508   c-0.192,0.199-0.327,0.265-0.588,0.396c-0.135-0.261-0.135-0.722-0.135-0.984c0-0.461,0.067-0.919,0.199-1.299   c0.197-0.202,0.332-0.532,0.524-0.673h0.7c-0.319,0-0.319,0.274-0.319,0.471C65.046,21.813,65.306,21.881,65.306,22.195    M63.628,22.919c-0.067,0-0.266-0.199-0.46-0.199c-0.188,0.396,0,0.66,0,1.117c0,0.199-0.067,0.396-0.067,0.396   c-0.12,0-0.358-0.261-0.415-0.525v-1.052l0.55-0.707C63.628,22.195,63.755,22.591,63.628,22.919 M77.101,4.781   c0.128-0.329,0.128-0.912-0.135-1.222c-0.132-0.261-0.46-0.393-0.787-0.651l-0.453,0.258c-0.235,0.132-0.358,0.393-0.358,0.703   c0.421,0.189,0.875,0.715,1.071,1.109h0.198C76.834,4.781,76.966,4.979,77.101,4.781 M74.917,5.177   c0-0.198-0.064-0.198-0.132-0.198c-0.327,0-0.327-0.526-0.591-0.394c-0.128,0-0.26-0.132-0.458,0c0,0.065,0,0.065,0.129,0.065   c0.329,0,0.201,0.459,0.46,0.526H74.917z M75.917,5.966c0,0,0.129,0,0-0.066l-1.392-0.198C74.397,5.9,74.067,5.9,74.067,6.094   h-0.132c0.132,0.521,0.132,1.085,0.132,1.677c0.26,0.066,0.525,0.197,0.525,0.592c0.261,0.132,0.525,0.198,0.777,0.394   c0.123-0.064,0.179-0.261,0.241-0.458c-0.241-0.33-0.824-0.133-0.824-0.724l-0.389-0.133c0-0.387,0-0.759-0.07-1.029l0.07-0.049   c0,0.049,0.062,0.116,0.195,0.251c0.261,0,0.525,0.067,0.777-0.135c0.123-0.067,0.123-0.386,0.241-0.386   C75.727,6.094,75.849,6.094,75.917,5.966 M72.683,4.585c-0.129-0.132-0.528,0.065-0.723,0.131c-0.26,0.065-0.457,0.263-0.457,0.46   h0.719C72.29,4.979,72.554,4.716,72.683,4.585 M71.237,3.87c-0.067-0.638-0.79-0.703-1.117-0.961h-0.264   c-0.513,0.191-0.633,0.719-0.691,1.15c0.178,0.591,0.562,0.197,0.82,0.591C70.252,4.453,70.91,3.991,71.237,3.87 M75.117,9.872   V9.546h-0.658l-0.062,0.066L75.117,9.872z M72.155,6.094c0-0.128-0.133-0.261-0.327-0.393h-1.446h-0.13   c0,0.264,0.195,0.393,0.393,0.393c0,0.27,0.198,0.319,0.265,0.386c0.198,0.135,0.26,0.135,0.459,0c0.197,0.135,0.264-0.116,0.332,0   c0,0.398,0,0.574-0.067,0.896c-0.067,0.461-0.463,0.395-0.791,0.592c0,0.196-0.198,0.527,0,0.724   c0.199-0.132,0.327-0.197,0.661-0.33c0-0.198,0.197-0.395,0.457-0.526C71.96,7.247,72.155,6.683,72.155,6.094 M71.633,9.546   c-0.129-0.263-0.463,0-0.791-0.132c0,0.132,0,0.264,0.199,0.395C71.237,9.613,71.566,9.546,71.633,9.546"/>
</g>
</svg>